<svg width="200" height="40" viewBox="0 0 576 120" fill="none" xmlns="http://www.w3.org/2000/svg">
    <path d="M74.5 25.5L62.5 13L61 23.5L69 28L74.5 25.5Z" fill="black" stroke="black"/>
    <path d="M26.5 68L20 74.5L26.5 79V81L30.5 83L35 84L40 86L44 83L47.5 81L52.5 77.5L59.5 74.5H67L72 77.5L77 81V86V90V95L73.5 98L72 101L68.5 103L65 105L61.5 107L56.5 110H49.5H42.5L37.5 111.5L68.5 114L72 111.5L80.5 107L89 101L95 95L100.5 90L109 73L112.5 58.5V45.5L109 35L103 26H100.5H95H89L80.5 28L72 31H68.5L47.5 18.5L49.5 38L37.5 54V58.5L34 61.5L26.5 68Z"
          fill="black" stroke="black"/>
    <path d="M51 49L42 59H46.5L51 54.2381V51.381V49Z" fill="white" stroke="black"/>
    <path d="M112.966 58C112.966 87.8234 88.7895 112 58.9662 112C29.1428 112 4.96616 87.8234 4.96616 58C4.96616 28.1766 29.1428 4 58.9662 4C88.7895 4 112.966 28.1766 112.966 58Z"
          fill="white" fill-opacity="0.01" stroke="black" stroke-width="8"/>
    <path d="M206.648 50.7386C204.5 35.2273 192.568 26.2273 177.091 26.2273C158.852 26.2273 145.114 39.5227 145.114 62.0909C145.114 84.625 158.682 97.9545 177.091 97.9545C193.693 97.9545 204.705 87.2159 206.648 73.8864L193.898 73.8182C192.295 82 185.614 86.6023 177.261 86.6023C165.943 86.6023 157.83 78.1136 157.83 62.0909C157.83 46.3409 165.875 37.5795 177.295 37.5795C185.784 37.5795 192.432 42.3864 193.898 50.7386H206.648ZM230.026 27.1818H217.685V97H230.026V27.1818ZM257.784 98.0568C266 98.0568 270.909 94.2045 273.159 89.8068H273.568V97H285.432V61.9545C285.432 48.1136 274.148 43.9545 264.159 43.9545C253.148 43.9545 244.693 48.8636 241.966 58.4091L253.489 60.0455C254.716 56.4659 258.193 53.3977 264.227 53.3977C269.955 53.3977 273.091 56.3295 273.091 61.4773V61.6818C273.091 65.2273 269.375 65.3977 260.136 66.3864C249.977 67.4773 240.261 70.5114 240.261 82.3068C240.261 92.6023 247.795 98.0568 257.784 98.0568ZM260.989 88.9886C255.841 88.9886 252.159 86.6364 252.159 82.1023C252.159 77.3636 256.284 75.3864 261.807 74.6023C265.045 74.1591 271.523 73.3409 273.125 72.0455V78.2159C273.125 84.0455 268.42 88.9886 260.989 88.9886ZM310.182 66.3182C310.182 58.75 314.75 54.3864 321.261 54.3864C327.636 54.3864 331.455 58.5795 331.455 65.5682V97H343.795V63.6591C343.83 51.1136 336.67 43.9545 325.864 43.9545C318.023 43.9545 312.636 47.7045 310.25 53.5341H309.636V44.6364H297.841V97H310.182V66.3182ZM384.432 27.1818V76.2727C384.398 83.6364 380.989 87.5568 374.92 87.5568C369.261 87.5568 365.477 84.1136 365.375 78.4545H352.795C352.795 91.3409 362.205 97.9545 374.443 97.9545C387.909 97.9545 396.943 89.7727 396.977 76.2727V27.1818H384.432ZM432.994 98.0227C448.335 98.0227 458.085 87.2159 458.085 71.0227C458.085 54.7955 448.335 43.9545 432.994 43.9545C417.653 43.9545 407.903 54.7955 407.903 71.0227C407.903 87.2159 417.653 98.0227 432.994 98.0227ZM433.062 88.1364C424.574 88.1364 420.415 80.5682 420.415 70.9886C420.415 61.4091 424.574 53.7386 433.062 53.7386C441.415 53.7386 445.574 61.4091 445.574 70.9886C445.574 80.5682 441.415 88.1364 433.062 88.1364ZM469.105 97H481.241V88.75H481.957C483.901 92.5682 487.957 97.9205 496.957 97.9205C509.298 97.9205 518.537 88.1364 518.537 70.8864C518.537 53.4318 509.026 43.9545 496.923 43.9545C487.685 43.9545 483.832 49.5114 481.957 53.2955H481.446V27.1818H469.105V97ZM481.207 70.8182C481.207 60.6591 485.571 54.0795 493.514 54.0795C501.73 54.0795 505.957 61.0682 505.957 70.8182C505.957 80.6364 501.662 87.7955 493.514 87.7955C485.639 87.7955 481.207 80.9773 481.207 70.8182ZM570.415 58.4773C568.71 49.6136 561.619 43.9545 549.347 43.9545C536.733 43.9545 528.142 50.1591 528.176 59.8409C528.142 67.4773 532.847 72.5227 542.903 74.6023L551.835 76.4773C556.642 77.5341 558.892 79.4773 558.892 82.4432C558.892 86.0227 555.006 88.7159 549.142 88.7159C543.483 88.7159 539.801 86.2614 538.744 81.5568L526.71 82.7159C528.244 92.3295 536.324 98.0227 549.176 98.0227C562.267 98.0227 571.506 91.2386 571.54 81.3182C571.506 73.8523 566.699 69.2841 556.812 67.1364L547.881 65.2273C542.562 64.0341 540.449 62.1932 540.483 59.1591C540.449 55.6136 544.369 53.1591 549.517 53.1591C555.21 53.1591 558.21 56.2614 559.165 59.7045L570.415 58.4773Z"
          fill="black"/>
</svg>