<svg width="472" height="376" viewBox="0 0 472 376" fill="none" xmlns="http://www.w3.org/2000/svg">
<path d="M255.224 36.635C249.849 33.7064 247.37 36.1413 245.451 33.7064C243.532 31.2714 250.826 24.9091 236.171 18.5693C236.171 18.5693 235.195 4.8909 215.177 4.39718C195.158 3.90346 200.522 18.0756 195.147 21.498C189.772 24.9203 188.314 19.5455 182.939 22.9567C177.564 26.3678 180.01 33.2126 175.611 34.1776C171.213 35.1427 165.356 29.7903 159.992 33.2014C154.628 36.6126 154.617 39.5525 152.137 39.5525C149.657 39.5525 144.81 37.6 141.881 39.5525C138.953 41.5049 135.53 43.9511 135.53 43.9511H259.129C259.129 43.9511 260.588 39.5637 255.224 36.635Z" fill="black"/>
<path d="M255.224 36.635C249.849 33.7064 247.37 36.1413 245.451 33.7064C243.532 31.2714 250.826 24.9091 236.171 18.5693C236.171 18.5693 235.195 4.8909 215.177 4.39718C195.158 3.90346 200.522 18.0756 195.147 21.498C189.772 24.9203 188.314 19.5455 182.939 22.9567C177.564 26.3678 180.01 33.2126 175.611 34.1776C171.213 35.1427 165.356 29.7903 159.992 33.2014C154.628 36.6126 154.617 39.5525 152.137 39.5525C149.657 39.5525 144.81 37.6 141.881 39.5525C138.953 41.5049 135.53 43.9511 135.53 43.9511H259.129C259.129 43.9511 260.588 39.5637 255.224 36.635Z" fill="black"/>
<path opacity="0.7" d="M255.224 36.635C249.849 33.7064 247.37 36.1413 245.451 33.7064C243.532 31.2714 250.826 24.9091 236.171 18.5693C236.171 18.5693 235.195 4.8909 215.177 4.39718C195.158 3.90346 200.522 18.0756 195.147 21.498C189.772 24.9203 188.314 19.5455 182.939 22.9567C177.564 26.3678 180.01 33.2126 175.611 34.1776C171.213 35.1427 165.356 29.7903 159.992 33.2014C154.628 36.6126 154.617 39.5525 152.137 39.5525C149.657 39.5525 144.81 37.6 141.881 39.5525C138.953 41.5049 135.53 43.9511 135.53 43.9511H259.129C259.129 43.9511 260.588 39.5637 255.224 36.635Z" fill="white"/>
<path opacity="0.8" d="M405.114 89.2502C402.152 87.6232 400.805 88.9809 399.728 87.6232C398.651 86.2654 402.69 82.7757 394.6 79.2635C394.6 79.2635 394.061 71.7118 382.998 71.4089C371.934 71.1059 374.907 78.9606 371.945 80.8569C368.983 82.7533 368.163 79.7348 365.212 81.6648C362.261 83.5948 363.596 87.2753 361.161 87.87C358.727 88.4647 355.495 85.4351 352.533 87.3202C349.57 89.2053 349.57 90.8324 348.213 90.8324C346.855 90.8324 344.173 89.7103 342.602 90.8324C341.031 91.9545 339.09 93.2561 339.09 93.2561H407.336C407.336 93.2561 408.088 90.8099 405.114 89.2502Z" fill="white"/>
<path opacity="0.8" d="M85.0806 150.55C82.1183 148.935 80.7605 150.281 79.6833 148.935C78.6061 147.588 82.6569 144.076 74.5666 140.564C74.5666 140.564 74.028 133.012 62.9641 132.709C51.9002 132.406 54.8738 140.261 51.9002 142.157C48.9266 144.053 48.13 141.035 45.1676 142.965C42.2053 144.895 43.5406 148.575 41.1168 149.17C38.6931 149.765 35.5064 146.735 32.4879 148.632C29.4695 150.528 29.5144 152.133 28.1678 152.133C26.8213 152.133 24.1283 151.01 22.5012 152.133C20.8742 153.255 19.0003 154.556 19.0003 154.556H87.2351C87.2351 154.556 88.0542 152.166 85.0806 150.55Z" fill="white"/>
<path d="M236.44 249.183L234.634 62.3198L271.495 61.9608L270.417 255.332L236.44 249.183Z" fill="white" stroke="#263238" stroke-linecap="round" stroke-linejoin="round"/>
<path d="M239.077 66.2023L239.369 142.505" stroke="#263238" stroke-width="0.75" stroke-linecap="round" stroke-linejoin="round"/>
<path d="M244.486 66.4941V159.325" stroke="#263238" stroke-width="0.75" stroke-linecap="round" stroke-linejoin="round"/>
<path d="M250.489 66.2023L251.095 160.526" stroke="#263238" stroke-width="0.75" stroke-linecap="round" stroke-linejoin="round"/>
<path d="M257.996 67.1V159.325" stroke="#263238" stroke-width="0.75" stroke-linecap="round" stroke-linejoin="round"/>
<path d="M264.908 67.4029V228.132" stroke="#263238" stroke-width="0.75" stroke-linecap="round" stroke-linejoin="round"/>
<path d="M236.373 74.6068L268.813 74.9098" stroke="#263238" stroke-width="0.75" stroke-linecap="round" stroke-linejoin="round"/>
<path d="M236.676 86.6245L268.521 87.5222" stroke="#263238" stroke-width="0.75" stroke-linecap="round" stroke-linejoin="round"/>
<path d="M237.271 98.9451L267.915 100.449" stroke="#263238" stroke-width="0.75" stroke-linecap="round" stroke-linejoin="round"/>
<path d="M236.968 111.266L268.521 113.364" stroke="#263238" stroke-width="0.75" stroke-linecap="round" stroke-linejoin="round"/>
<path d="M237.271 123.283L267.612 126.582" stroke="#263238" stroke-width="0.75" stroke-linecap="round" stroke-linejoin="round"/>
<path d="M271.495 61.9608L300.052 62.3198L297.886 236.178L270.417 255.332L271.495 61.9608Z" fill="#263238" stroke="#263238" stroke-linecap="round" stroke-linejoin="round"/>
<path d="M297.112 66.4941V159.325" stroke="white" stroke-width="0.75" stroke-linecap="round" stroke-linejoin="round"/>
<path d="M291.109 66.2023L291.176 172.454" stroke="white" stroke-width="0.75" stroke-linecap="round" stroke-linejoin="round"/>
<path d="M283.602 67.1L283.748 176.347" stroke="white" stroke-width="0.75" stroke-linecap="round" stroke-linejoin="round"/>
<path d="M276.69 67.4029V228.132" stroke="white" stroke-width="0.75" stroke-linecap="round" stroke-linejoin="round"/>
<path d="M299.3 74.5395L272.785 74.9098" stroke="white" stroke-width="0.75" stroke-linecap="round" stroke-linejoin="round"/>
<path d="M299.3 87.2641L273.077 87.5222" stroke="white" stroke-width="0.75" stroke-linecap="round" stroke-linejoin="round"/>
<path d="M300.007 98.9227L273.683 100.449" stroke="white" stroke-width="0.75" stroke-linecap="round" stroke-linejoin="round"/>
<path d="M298.952 112.006L273.077 113.364" stroke="white" stroke-width="0.75" stroke-linecap="round" stroke-linejoin="round"/>
<path d="M298.952 124.024L273.986 126.582" stroke="white" stroke-width="0.75" stroke-linecap="round" stroke-linejoin="round"/>
<path d="M298.245 136.401L273.279 138.959" stroke="white" stroke-width="0.75" stroke-linecap="round" stroke-linejoin="round"/>
<path d="M298.245 147.352L272.572 151.325" stroke="white" stroke-width="0.75" stroke-linecap="round" stroke-linejoin="round"/>
<path d="M297.112 159.325L271.865 163.701" stroke="white" stroke-width="0.75" stroke-linecap="round" stroke-linejoin="round"/>
<path d="M269.643 0.604492H267.141V40.0126H269.643V0.604492Z" fill="white" stroke="#263238" stroke-linecap="round" stroke-linejoin="round"/>
<path d="M252.486 46.9134L252.363 37.4766L283.288 37.9703L283.535 47.5418L252.486 46.9134Z" fill="white" stroke="#263238" stroke-linecap="round" stroke-linejoin="round"/>
<path d="M269.374 47.1603V37.9703H283.288L283.535 47.5418L269.374 47.1603Z" fill="#263238" stroke="#263238" stroke-linecap="round" stroke-linejoin="round"/>
<path d="M234.634 62.3198L242.219 53.646L271.495 53.287V61.9608L234.634 62.3198Z" fill="white" stroke="#263238" stroke-linecap="round" stroke-linejoin="round"/>
<path d="M271.495 53.287L293.544 54.0051L300.052 62.3198L271.495 61.9608V53.287Z" fill="#263238" stroke="#263238" stroke-linecap="round" stroke-linejoin="round"/>
<path d="M242.219 53.646V47.1379L271.483 46.9134L271.495 53.287L242.219 53.646Z" fill="white" stroke="#263238" stroke-linecap="round" stroke-linejoin="round"/>
<path d="M271.483 46.9134L293.589 47.6653L293.544 54.0051L271.495 53.287L271.483 46.9134Z" fill="#263238" stroke="#263238" stroke-linecap="round" stroke-linejoin="round"/>
<path d="M382.616 226.303L404.587 231.24L406.236 187.86L423.258 180.163L446.879 185.661L445.779 255.96L458.414 258.16L457.314 374.016L395.251 354.278L345.273 339.444L382.616 226.303Z" fill="#263238"/>
<path d="M295.799 127.065L359.209 132.44L379.99 126.706L315.862 121.69L295.799 127.065Z" fill="white" stroke="#263238" stroke-linecap="round" stroke-linejoin="round"/>
<path d="M359.209 132.44L357.414 237.76L378.195 228.087L379.99 126.706L359.209 132.44Z" fill="#263238" stroke="#263238" stroke-linecap="round" stroke-linejoin="round"/>
<path d="M295.799 127.065L295.44 224.508L357.414 237.76L359.209 132.44L295.799 127.065Z" fill="white" stroke="#263238" stroke-linecap="round" stroke-linejoin="round"/>
<path d="M348.953 156.924L301.724 152.346V132.754L348.953 137.332V156.924Z" fill="black" stroke="#263238" stroke-miterlimit="10"/>
<path d="M308.401 148.093L307.392 139.688L308.518 139.801L309.124 145.778L309.894 139.938L310.908 140.04L311.683 146.033L312.218 140.171L313.349 140.284L312.401 148.493L311.147 148.367L310.415 142.774L309.655 148.218L308.401 148.093ZM316.33 146.39L315.776 142.164L315.758 142.162L315.25 146.282L316.33 146.39ZM313.739 148.626L314.917 140.44L316.579 140.607L317.833 149.036L316.659 148.918L316.462 147.417L315.128 147.284L314.95 148.747L313.739 148.626ZM318.696 149.122V140.818L319.682 140.917L321.433 146.074L321.344 143.801V141.083L322.475 141.196V149.5L321.584 149.411L319.785 144.074L319.856 146.261V149.238L318.696 149.122ZM324.142 149.667V142.458L323.175 142.361V141.266L326.325 141.581V142.676L325.396 142.583V149.792L324.142 149.667ZM327.025 149.955V141.651L329.794 141.928V143.018L328.283 142.867V145.283L329.719 145.426V146.492L328.283 146.349V148.991L329.851 149.148V150.238L327.025 149.955ZM332.109 149.482L332.522 149.523C332.754 149.546 332.921 149.488 333.024 149.347C333.131 149.207 333.184 148.935 333.184 148.533L333.179 144.432C333.179 144.001 333.126 143.689 333.02 143.496C332.916 143.304 332.736 143.194 332.48 143.169L332.109 143.132V149.482ZM330.851 150.338V142.034L332.705 142.219C333.312 142.28 333.752 142.505 334.024 142.894C334.3 143.28 334.437 143.824 334.437 144.525L334.442 148.272C334.442 149.108 334.304 149.708 334.029 150.07C333.753 150.433 333.298 150.582 332.663 150.519L330.851 150.338Z" fill="#263238"/>
<path d="M284.511 180.982L325.355 186.087L349.806 175.337L310.847 170.771L284.511 180.982Z" fill="white" stroke="#263238" stroke-linecap="round" stroke-linejoin="round"/>
<path d="M292.096 180.387L323.448 184.303L342.22 176.056L312.317 172.543L292.096 180.387Z" fill="white" stroke="#263238" stroke-width="0.75" stroke-linecap="round" stroke-linejoin="round"/>
<path d="M284.511 180.982L283.445 263.736L323.201 274.475L325.355 186.087L284.511 180.982Z" fill="white" stroke="#263238" stroke-linecap="round" stroke-linejoin="round"/>
<path d="M325.355 186.087L349.806 175.338L348.19 263.467L323.201 274.475L325.355 186.087Z" fill="#263238" stroke="#263238" stroke-linecap="round" stroke-linejoin="round"/>
<path d="M187.214 287.48L183.735 184.909L149.77 178.816L153.035 278.739L187.214 287.48Z" fill="white" stroke="#263238" stroke-linecap="round" stroke-linejoin="round"/>
<path d="M152.249 215.206L182.894 222.724" stroke="#263238" stroke-width="0.75" stroke-linecap="round" stroke-linejoin="round"/>
<path d="M153.753 218.819L183.197 226.326" stroke="#263238" stroke-width="0.75" stroke-linecap="round" stroke-linejoin="round"/>
<path d="M154.056 238.04L183.5 245.547" stroke="#263238" stroke-width="0.75" stroke-linecap="round" stroke-linejoin="round"/>
<path d="M152.552 235.033L183.197 243.146" stroke="#263238" stroke-width="0.75" stroke-linecap="round" stroke-linejoin="round"/>
<path d="M183.735 184.909L211.608 177.077L212.91 265.947L187.214 287.48L183.735 184.909Z" fill="#263238" stroke="#263238" stroke-linecap="round" stroke-linejoin="round"/>
<path d="M149.77 178.816L188.527 169.671L211.608 177.077L183.735 184.909L149.77 178.816Z" fill="white" stroke="#263238" stroke-linecap="round" stroke-linejoin="round"/>
<path d="M152.597 184.483L181.054 189.173L181.446 209.831L153.304 204.501L152.597 184.483Z" fill="black" stroke="#263238" stroke-linecap="round" stroke-linejoin="round"/>
<path d="M157.536 202.234V196.649L158.375 196.783V199.042L159.128 199.161V196.902L159.967 197.035V202.619L159.128 202.486V199.89L158.375 199.771V202.367L157.536 202.234ZM160.826 202.755V197.171L161.666 197.304V202.888L160.826 202.755ZM163.634 200.576L163.364 200.52V203.157L162.524 203.024V197.44L163.913 197.66C164.201 197.705 164.416 197.799 164.558 197.94C164.7 198.078 164.793 198.257 164.837 198.476C164.883 198.692 164.906 198.971 164.906 199.311C164.906 199.65 164.871 199.902 164.8 200.069C164.728 200.235 164.597 200.334 164.405 200.365C164.595 200.429 164.727 200.58 164.803 200.818C164.878 201.056 164.915 201.534 164.915 202.251C164.915 202.966 164.926 203.351 164.947 203.408L164.107 203.275C164.086 203.229 164.076 202.56 164.076 201.268C164.076 201.02 164.046 200.852 163.988 200.762C163.929 200.67 163.811 200.608 163.634 200.576ZM163.367 199.861L163.703 199.914C163.809 199.931 163.888 199.919 163.938 199.878C163.99 199.838 164.025 199.76 164.044 199.644C164.065 199.529 164.076 199.35 164.076 199.107V199.072C164.076 198.77 164.051 198.568 164 198.467C163.95 198.366 163.834 198.301 163.653 198.272L163.367 198.227V199.861ZM165.721 203.53V197.946L166.561 198.079V203.663L165.721 203.53ZM167.419 203.799V198.215L168.077 198.319L169.246 201.855L169.187 200.323V198.495L169.942 198.615V204.199L169.347 204.105L168.146 200.447L168.193 201.92V203.922L167.419 203.799ZM171.81 204.552C171.463 204.497 171.191 204.316 170.995 204.01C170.801 203.702 170.703 203.261 170.703 202.686V200.258C170.703 199.742 170.803 199.365 171.001 199.125C171.202 198.886 171.519 198.801 171.954 198.87C172.495 198.956 172.838 199.214 172.985 199.646C173.072 199.905 173.116 200.247 173.116 200.672V201.069L172.333 200.945V200.361C172.333 200.105 172.306 199.921 172.251 199.809C172.199 199.697 172.099 199.629 171.951 199.606C171.804 199.582 171.701 199.629 171.64 199.744C171.58 199.857 171.55 200.071 171.55 200.386V202.807C171.55 203.173 171.577 203.432 171.631 203.584C171.685 203.737 171.791 203.826 171.947 203.85C172.106 203.875 172.218 203.816 172.283 203.672C172.35 203.528 172.383 203.273 172.383 202.907V202.155L171.96 202.088V201.47L173.116 201.653V204.702L172.74 204.642L172.612 204.073C172.568 204.254 172.472 204.387 172.324 204.471C172.175 204.556 172.004 204.583 171.81 204.552Z" fill="#263238"/>
<path d="M190.704 141.809L194.99 286.93L231.122 296.939L229.023 147.027L190.704 141.809Z" fill="white" stroke="#263238" stroke-linecap="round" stroke-linejoin="round"/>
<path d="M195.921 153.322L199.4 277.044" stroke="#263238" stroke-width="0.75" stroke-linecap="round" stroke-linejoin="round"/>
<path d="M195.708 145.939L195.82 149.63" stroke="#263238" stroke-width="0.75" stroke-linecap="round" stroke-linejoin="round"/>
<path d="M201.622 147.386L204.303 277.908" stroke="#263238" stroke-width="0.75" stroke-linecap="round" stroke-linejoin="round"/>
<path d="M207.625 148.822L209.488 279.636" stroke="#263238" stroke-width="0.75" stroke-linecap="round" stroke-linejoin="round"/>
<path d="M213.392 149.552L215.255 280.209" stroke="#263238" stroke-width="0.75" stroke-linecap="round" stroke-linejoin="round"/>
<path d="M219.631 151.47L221.303 282.812" stroke="#263238" stroke-width="0.75" stroke-linecap="round" stroke-linejoin="round"/>
<path d="M225.96 171.803L227.363 283.093" stroke="#263238" stroke-width="0.75" stroke-linecap="round" stroke-linejoin="round"/>
<path d="M225.758 151.616L225.904 166.529" stroke="#263238" stroke-width="0.75" stroke-linecap="round" stroke-linejoin="round"/>
<path d="M263.427 139.195L304.653 231.173V318.068L258.108 298.824L263.427 139.195Z" fill="#263238"/>
<path d="M284.792 196.41V223.722" stroke="white" stroke-width="0.75" stroke-linecap="round" stroke-linejoin="round"/>
<path d="M229.023 147.027L263.427 139.195V305.366L230.336 297.029L229.023 147.027Z" fill="#263238" stroke="#263238" stroke-linecap="round" stroke-linejoin="round"/>
<path d="M256.492 154.029L257.502 291.721" stroke="white" stroke-width="0.75" stroke-linecap="round" stroke-linejoin="round"/>
<path d="M256.447 145.557L256.47 149.63" stroke="white" stroke-width="0.75" stroke-linecap="round" stroke-linejoin="round"/>
<path d="M250.444 147.622L251.723 290.857" stroke="white" stroke-width="0.75" stroke-linecap="round" stroke-linejoin="round"/>
<path d="M244.677 148.946L245.507 290.857" stroke="white" stroke-width="0.75" stroke-linecap="round" stroke-linejoin="round"/>
<path d="M238.426 151.515L239.515 287.861" stroke="white" stroke-width="0.75" stroke-linecap="round" stroke-linejoin="round"/>
<path d="M232.311 152.301L233.938 286.358" stroke="white" stroke-width="0.75" stroke-linecap="round" stroke-linejoin="round"/>
<path d="M190.704 141.809L228.159 135.267L263.427 139.195L229.023 147.027L190.704 141.809Z" fill="white" stroke="#263238" stroke-linecap="round" stroke-linejoin="round"/>
<path d="M198.289 141.663L227.924 136.502L255.841 139.599L228.619 145.804L198.289 141.663Z" fill="white" stroke="#263238" stroke-width="0.75" stroke-linecap="round" stroke-linejoin="round"/>
<path d="M231.402 172.476L262.192 163.376V181.924L231.402 192.068V172.476Z" fill="black" stroke="#263238" stroke-miterlimit="10"/>
<path d="M241.922 182.535C241.93 183.326 241.77 183.989 241.442 184.525C241.114 185.056 240.648 185.416 240.043 185.604C239.442 185.791 238.971 185.746 238.632 185.47C238.296 185.189 238.124 184.682 238.117 183.95L238.099 182.225L239.458 181.803L239.474 183.456C239.48 183.991 239.565 184.291 239.731 184.357C239.805 184.385 239.896 184.383 240.004 184.349C240.218 184.283 240.357 184.148 240.421 183.944C240.489 183.739 240.521 183.439 240.517 183.044L240.444 175.673L241.849 175.235L241.922 182.535ZM244.584 181.388C244.589 181.956 244.634 182.339 244.716 182.537C244.802 182.734 244.973 182.793 245.228 182.714C245.484 182.634 245.65 182.469 245.728 182.217C245.807 181.961 245.843 181.555 245.837 180.998L245.792 176.494C245.788 176.037 245.742 175.716 245.656 175.534C245.574 175.346 245.412 175.29 245.171 175.365C244.933 175.439 244.766 175.598 244.67 175.84C244.578 176.079 244.534 176.425 244.539 176.879L244.584 181.388ZM247.248 180.543C247.257 181.488 247.104 182.243 246.787 182.808C246.47 183.373 245.956 183.766 245.246 183.986C244.54 184.206 244.018 184.135 243.682 183.773C243.348 183.407 243.177 182.753 243.167 181.812L243.123 177.39C243.105 175.618 243.787 174.517 245.168 174.088C245.882 173.866 246.396 173.932 246.712 174.286C247.031 174.638 247.195 175.25 247.204 176.122L247.248 180.543ZM252.433 174.435C252.443 175.475 252.18 176.198 251.644 176.603C252.304 176.63 252.64 177.287 252.653 178.576L252.655 178.823C252.658 179.796 252.503 180.546 252.189 181.073C251.878 181.599 251.365 181.974 250.648 182.197L248.607 182.831L248.511 173.164L250.509 172.543C251.198 172.329 251.687 172.346 251.978 172.593C252.268 172.837 252.418 173.352 252.43 174.139L252.433 174.435ZM250.002 181.252L250.5 181.097C250.78 181.01 250.974 180.848 251.084 180.612C251.194 180.376 251.247 179.998 251.241 179.478L251.234 178.698C251.229 178.207 251.18 177.875 251.087 177.702C250.994 177.525 250.818 177.477 250.559 177.558L249.967 177.742L250.002 181.252ZM249.955 176.638L250.475 176.476C250.716 176.401 250.873 176.272 250.944 176.088C251.02 175.903 251.055 175.56 251.05 175.058L251.044 174.476C251.037 174.103 250.985 173.87 250.89 173.774C250.794 173.676 250.631 173.662 250.4 173.734L249.928 173.881L249.955 176.638Z" fill="#263238"/>
<path d="M297.393 218.875L262.563 234.124L309.702 243.909L337.452 224.979L297.393 218.875Z" fill="white" stroke="#263238" stroke-linecap="round" stroke-linejoin="round"/>
<path d="M297.752 220.614L267.758 233.743L308.356 242.17L332.256 225.866L297.752 220.614Z" fill="white" stroke="#263238" stroke-width="0.75" stroke-linecap="round" stroke-linejoin="round"/>
<path d="M262.563 234.124L263.427 305.366L309.152 316.688L309.702 243.909L262.563 234.124Z" fill="white" stroke="#263238" stroke-linecap="round" stroke-linejoin="round"/>
<path d="M269.856 295.75L269.452 283.833L296.473 290.981V302.898L269.856 295.75Z" fill="#263238"/>
<path d="M266.389 244.189L298.223 251.191L298.661 274.329L267.175 266.631L266.389 244.189Z" fill="black" stroke="#263238" stroke-linecap="round" stroke-linejoin="round"/>
<path d="M271.524 264.177V257.664L272.494 257.868V260.503L273.363 260.685V258.051L274.334 258.254V264.767L273.363 264.563V261.536L272.494 261.354V264.38L271.524 264.177ZM275.326 264.975V258.463L276.297 258.667V265.179L275.326 264.975ZM278.571 262.596L278.259 262.516V265.591L277.289 265.387V258.875L278.893 259.212C279.226 259.282 279.475 259.403 279.639 259.576C279.803 259.746 279.91 259.96 279.961 260.217C280.014 260.472 280.041 260.798 280.041 261.196C280.041 261.59 280 261.883 279.918 262.073C279.836 262.263 279.684 262.37 279.461 262.395C279.681 262.481 279.834 262.664 279.921 262.947C280.008 263.229 280.052 263.788 280.052 264.624C280.052 265.458 280.064 265.908 280.088 265.975L279.117 265.771C279.093 265.717 279.081 264.936 279.081 263.429C279.081 263.14 279.047 262.942 278.98 262.834C278.912 262.724 278.776 262.644 278.571 262.596ZM278.263 261.747L278.65 261.829C278.773 261.855 278.864 261.845 278.922 261.801C278.982 261.757 279.023 261.668 279.045 261.534C279.069 261.401 279.081 261.193 279.081 260.909V260.868C279.081 260.516 279.052 260.279 278.994 260.158C278.936 260.037 278.802 259.955 278.592 259.911L278.263 259.842V261.747ZM280.982 266.163V259.651L281.953 259.854V266.367L280.982 266.163ZM282.945 266.575V260.063L283.705 260.222L285.056 264.413L284.987 262.623V260.492L285.86 260.675V267.187L285.172 267.043L283.785 262.707L283.839 264.428V266.763L282.945 266.575ZM288.018 267.707C287.618 267.623 287.304 267.397 287.077 267.028C286.852 266.658 286.74 266.137 286.74 265.466V262.636C286.74 262.034 286.855 261.599 287.084 261.332C287.316 261.064 287.683 260.984 288.185 261.089C288.81 261.22 289.207 261.542 289.376 262.053C289.478 262.361 289.528 262.762 289.528 263.258V263.721L288.623 263.531V262.85C288.623 262.551 288.592 262.335 288.529 262.201C288.468 262.068 288.353 261.983 288.181 261.947C288.012 261.911 287.893 261.959 287.823 262.09C287.753 262.218 287.718 262.466 287.718 262.834V265.657C287.718 266.084 287.749 266.388 287.812 266.568C287.875 266.749 287.997 266.859 288.178 266.897C288.361 266.935 288.49 266.872 288.565 266.708C288.642 266.544 288.681 266.249 288.681 265.822V264.945L288.192 264.843V264.121L289.528 264.402V267.958L289.094 267.866L288.945 267.195C288.895 267.404 288.784 267.553 288.612 267.643C288.441 267.733 288.243 267.754 288.018 267.707Z" fill="#263238"/>
<path d="M310.028 203.637L309.152 316.688L356.617 329.749L360.107 212.344L310.028 203.637Z" fill="white" stroke="#263238" stroke-linecap="round" stroke-linejoin="round"/>
<path d="M316.233 208.731L315.144 307.274" stroke="#263238" stroke-width="0.75" stroke-linecap="round" stroke-linejoin="round"/>
<path d="M322.46 210.291L321.899 310.057" stroke="#263238" stroke-width="0.75" stroke-linecap="round" stroke-linejoin="round"/>
<path d="M330.562 212.468L330.248 313.232" stroke="#263238" stroke-width="0.75" stroke-linecap="round" stroke-linejoin="round"/>
<path d="M339.92 214.342L338.989 316.015" stroke="#263238" stroke-width="0.75" stroke-linecap="round" stroke-linejoin="round"/>
<path d="M350.513 216.215L347.73 318.001" stroke="#263238" stroke-width="0.75" stroke-linecap="round" stroke-linejoin="round"/>
<path d="M360.107 212.344L386.667 197.106L338.764 190.138L310.028 203.637L360.107 212.344Z" fill="white" stroke="#263238" stroke-linecap="round" stroke-linejoin="round"/>
<path d="M357.728 210.111L378.947 197.937L340.694 192.382L317.736 203.154L357.728 210.111Z" fill="white" stroke="#263238" stroke-width="0.75" stroke-linecap="round" stroke-linejoin="round"/>
<path d="M386.667 197.106L382.313 333.093L356.617 329.749L360.107 212.344L386.667 197.106Z" fill="#263238" stroke="#263238" stroke-linecap="round" stroke-linejoin="round"/>
<path d="M365.302 215.374L362.497 325.149" stroke="white" stroke-width="0.75" stroke-linecap="round" stroke-linejoin="round"/>
<path d="M372.326 210.605L369.835 318.798" stroke="white" stroke-width="0.75" stroke-linecap="round" stroke-linejoin="round"/>
<path d="M379.8 205.309L377.926 316.408" stroke="white" stroke-width="0.75" stroke-linecap="round" stroke-linejoin="round"/>
<path d="M322.012 232.643V255.04L311.172 253.29L312.148 246.703L300.321 256.431L311.868 266.586L312.216 261.683L330.405 265.88L331.101 236.851L322.012 232.643Z" fill="black" stroke="#263238" stroke-linecap="round" stroke-linejoin="round"/>
<path d="M314.325 261.01C314.325 261.274 314.247 261.533 314.099 261.753C313.952 261.972 313.743 262.144 313.498 262.244C313.254 262.345 312.984 262.371 312.725 262.318C312.466 262.266 312.228 262.138 312.042 261.95C311.855 261.762 311.729 261.523 311.679 261.263C311.629 261.003 311.657 260.735 311.759 260.491C311.862 260.247 312.035 260.039 312.256 259.894C312.477 259.749 312.737 259.672 313.001 259.674C313.176 259.674 313.349 259.709 313.51 259.776C313.672 259.843 313.818 259.942 313.941 260.066C314.064 260.19 314.162 260.338 314.228 260.499C314.293 260.661 314.327 260.835 314.325 261.01V261.01Z" fill="white" stroke="#263238" stroke-linecap="round" stroke-linejoin="round"/>
<path d="M318.454 263.748C319.192 263.748 319.79 263.15 319.79 262.412C319.79 261.675 319.192 261.077 318.454 261.077C317.717 261.077 317.119 261.675 317.119 262.412C317.119 263.15 317.717 263.748 318.454 263.748Z" fill="white" stroke="#263238" stroke-linecap="round" stroke-linejoin="round"/>
<path d="M325.254 263.804C325.254 264.068 325.176 264.326 325.029 264.546C324.883 264.765 324.674 264.936 324.43 265.037C324.186 265.138 323.918 265.165 323.659 265.113C323.4 265.062 323.162 264.935 322.975 264.748C322.788 264.561 322.661 264.323 322.609 264.064C322.558 263.805 322.584 263.537 322.685 263.293C322.787 263.049 322.958 262.84 323.177 262.693C323.397 262.547 323.655 262.468 323.919 262.468C324.273 262.468 324.613 262.609 324.863 262.859C325.114 263.11 325.254 263.45 325.254 263.804Z" fill="white" stroke="#263238" stroke-linecap="round" stroke-linejoin="round"/>
<path d="M330.719 265.206C330.719 265.47 330.641 265.729 330.494 265.948C330.347 266.168 330.139 266.339 329.895 266.44C329.651 266.541 329.382 266.567 329.123 266.516C328.864 266.464 328.626 266.337 328.44 266.15C328.253 265.964 328.126 265.726 328.074 265.467C328.023 265.208 328.049 264.939 328.15 264.695C328.251 264.451 328.422 264.243 328.642 264.096C328.861 263.949 329.12 263.871 329.384 263.871C329.738 263.871 330.077 264.012 330.328 264.262C330.578 264.512 330.719 264.852 330.719 265.206V265.206Z" fill="white" stroke="#263238" stroke-linecap="round" stroke-linejoin="round"/>
<path d="M331.347 258.474C331.347 258.738 331.269 258.996 331.122 259.216C330.976 259.435 330.767 259.606 330.523 259.707C330.279 259.808 330.011 259.835 329.752 259.783C329.493 259.732 329.255 259.605 329.068 259.418C328.881 259.231 328.754 258.993 328.702 258.734C328.651 258.475 328.677 258.207 328.778 257.963C328.879 257.719 329.051 257.51 329.27 257.363C329.49 257.217 329.748 257.138 330.012 257.138C330.366 257.138 330.706 257.279 330.956 257.529C331.207 257.78 331.347 258.12 331.347 258.474V258.474Z" fill="white" stroke="#263238" stroke-linecap="round" stroke-linejoin="round"/>
<path d="M331.605 250.978C331.605 251.242 331.527 251.5 331.38 251.72C331.234 251.94 331.025 252.111 330.781 252.212C330.537 252.313 330.269 252.339 330.01 252.288C329.751 252.236 329.513 252.109 329.326 251.922C329.139 251.736 329.012 251.498 328.961 251.239C328.909 250.98 328.935 250.711 329.037 250.467C329.138 250.223 329.309 250.015 329.528 249.868C329.748 249.721 330.006 249.643 330.27 249.643C330.624 249.643 330.964 249.783 331.214 250.034C331.465 250.284 331.605 250.624 331.605 250.978V250.978Z" fill="white" stroke="#263238" stroke-linecap="round" stroke-linejoin="round"/>
<path d="M331.987 243.55C331.987 243.814 331.909 244.072 331.762 244.292C331.615 244.511 331.407 244.682 331.163 244.783C330.919 244.885 330.65 244.911 330.391 244.859C330.132 244.808 329.894 244.681 329.707 244.494C329.521 244.307 329.394 244.069 329.342 243.81C329.29 243.551 329.317 243.283 329.418 243.039C329.519 242.795 329.69 242.586 329.91 242.44C330.129 242.293 330.388 242.215 330.652 242.215C331.006 242.215 331.345 242.355 331.596 242.606C331.846 242.856 331.987 243.196 331.987 243.55Z" fill="white" stroke="#263238" stroke-linecap="round" stroke-linejoin="round"/>
<path d="M331.852 237.513C331.852 237.778 331.774 238.036 331.626 238.256C331.479 238.476 331.27 238.647 331.025 238.748C330.781 238.848 330.512 238.874 330.252 238.822C329.993 238.769 329.755 238.641 329.569 238.453C329.383 238.265 329.256 238.026 329.206 237.766C329.156 237.507 329.184 237.238 329.287 236.994C329.389 236.75 329.562 236.543 329.783 236.397C330.004 236.252 330.264 236.175 330.528 236.178C330.703 236.178 330.876 236.212 331.038 236.279C331.199 236.347 331.345 236.445 331.468 236.569C331.592 236.694 331.689 236.841 331.755 237.003C331.821 237.165 331.854 237.338 331.852 237.513V237.513Z" fill="white" stroke="#263238" stroke-linecap="round" stroke-linejoin="round"/>
<path d="M328.048 234.842C328.051 235.107 327.974 235.366 327.829 235.587C327.683 235.808 327.476 235.981 327.232 236.084C326.988 236.187 326.719 236.215 326.459 236.165C326.2 236.114 325.961 235.988 325.773 235.802C325.585 235.615 325.457 235.378 325.404 235.118C325.352 234.859 325.378 234.59 325.478 234.345C325.579 234.101 325.75 233.891 325.97 233.744C326.19 233.597 326.448 233.518 326.713 233.518C327.065 233.518 327.403 233.657 327.653 233.905C327.903 234.153 328.045 234.49 328.048 234.842V234.842Z" fill="white" stroke="#263238" stroke-linecap="round" stroke-linejoin="round"/>
<path d="M322.337 234.023C323.074 234.023 323.672 233.425 323.672 232.688C323.672 231.95 323.074 231.353 322.337 231.353C321.599 231.353 321.002 231.95 321.002 232.688C321.002 233.425 321.599 234.023 322.337 234.023Z" fill="white" stroke="#263238" stroke-linecap="round" stroke-linejoin="round"/>
<path d="M323.291 239.97C323.291 240.234 323.212 240.493 323.066 240.712C322.919 240.932 322.71 241.103 322.466 241.204C322.222 241.305 321.954 241.331 321.695 241.28C321.436 241.228 321.198 241.101 321.011 240.915C320.824 240.728 320.697 240.49 320.646 240.231C320.594 239.972 320.621 239.703 320.722 239.459C320.823 239.215 320.994 239.007 321.214 238.86C321.433 238.713 321.691 238.635 321.955 238.635C322.31 238.635 322.649 238.776 322.9 239.026C323.15 239.277 323.291 239.616 323.291 239.97Z" fill="white" stroke="#263238" stroke-linecap="round" stroke-linejoin="round"/>
<path d="M322.909 247.253C322.909 247.517 322.831 247.775 322.684 247.995C322.537 248.214 322.329 248.385 322.085 248.486C321.841 248.587 321.572 248.614 321.313 248.562C321.054 248.511 320.816 248.384 320.63 248.197C320.443 248.01 320.316 247.772 320.264 247.513C320.213 247.254 320.239 246.986 320.34 246.742C320.441 246.498 320.612 246.289 320.832 246.142C321.052 245.996 321.31 245.917 321.574 245.917C321.75 245.916 321.924 245.949 322.087 246.016C322.249 246.083 322.397 246.181 322.521 246.305C322.646 246.43 322.744 246.577 322.811 246.74C322.877 246.903 322.911 247.077 322.909 247.253V247.253Z" fill="white" stroke="#263238" stroke-linecap="round" stroke-linejoin="round"/>
<path d="M322.539 254.524C322.539 254.788 322.461 255.046 322.314 255.266C322.167 255.485 321.959 255.656 321.715 255.758C321.471 255.859 321.202 255.885 320.943 255.834C320.684 255.782 320.446 255.655 320.259 255.468C320.073 255.281 319.945 255.043 319.894 254.784C319.842 254.525 319.869 254.257 319.97 254.013C320.071 253.769 320.242 253.56 320.462 253.414C320.681 253.267 320.939 253.189 321.204 253.189C321.558 253.189 321.897 253.329 322.148 253.58C322.398 253.83 322.539 254.17 322.539 254.524V254.524Z" fill="white" stroke="#263238" stroke-linecap="round" stroke-linejoin="round"/>
<path d="M313.136 253.379C313.138 253.644 313.061 253.903 312.916 254.124C312.771 254.345 312.563 254.518 312.319 254.621C312.075 254.724 311.807 254.752 311.547 254.702C311.287 254.651 311.048 254.525 310.86 254.339C310.672 254.152 310.544 253.915 310.492 253.655C310.439 253.396 310.465 253.127 310.566 252.882C310.666 252.638 310.838 252.428 311.057 252.281C311.277 252.134 311.536 252.055 311.8 252.055C312.153 252.055 312.491 252.194 312.741 252.442C312.991 252.69 313.133 253.027 313.136 253.379V253.379Z" fill="white" stroke="#263238" stroke-linecap="round" stroke-linejoin="round"/>
<path d="M313.394 246.905C313.394 247.169 313.315 247.427 313.169 247.647C313.022 247.866 312.813 248.037 312.569 248.139C312.326 248.24 312.057 248.266 311.798 248.215C311.539 248.163 311.301 248.036 311.114 247.849C310.928 247.662 310.8 247.424 310.749 247.165C310.697 246.906 310.724 246.638 310.825 246.394C310.926 246.15 311.097 245.941 311.317 245.795C311.536 245.648 311.794 245.57 312.059 245.57C312.413 245.57 312.752 245.71 313.003 245.961C313.253 246.211 313.394 246.551 313.394 246.905Z" fill="white" stroke="#263238" stroke-linecap="round" stroke-linejoin="round"/>
<path d="M302.139 256.308C302.139 256.572 302.061 256.83 301.914 257.05C301.767 257.27 301.559 257.441 301.315 257.542C301.071 257.643 300.802 257.669 300.543 257.618C300.284 257.566 300.046 257.439 299.86 257.252C299.673 257.066 299.546 256.828 299.494 256.569C299.443 256.31 299.469 256.041 299.57 255.797C299.671 255.553 299.842 255.345 300.062 255.198C300.282 255.051 300.54 254.973 300.804 254.973C301.158 254.973 301.498 255.113 301.748 255.364C301.998 255.614 302.139 255.954 302.139 256.308Z" fill="white" stroke="#263238" stroke-linecap="round" stroke-linejoin="round"/>
<path d="M313.192 267.484C313.192 267.748 313.114 268.006 312.967 268.226C312.82 268.446 312.612 268.617 312.368 268.718C312.124 268.819 311.855 268.845 311.596 268.794C311.337 268.742 311.099 268.615 310.912 268.428C310.726 268.242 310.598 268.004 310.547 267.745C310.495 267.486 310.522 267.217 310.623 266.973C310.724 266.729 310.895 266.521 311.115 266.374C311.334 266.227 311.592 266.149 311.857 266.149C312.211 266.149 312.55 266.29 312.801 266.54C313.051 266.79 313.192 267.13 313.192 267.484Z" fill="white" stroke="#263238" stroke-linecap="round" stroke-linejoin="round"/>
<path d="M306.325 261.01C306.325 261.274 306.246 261.533 306.099 261.753C305.951 261.972 305.742 262.144 305.498 262.244C305.253 262.345 304.984 262.371 304.725 262.318C304.465 262.266 304.227 262.138 304.041 261.95C303.855 261.762 303.728 261.523 303.678 261.263C303.628 261.003 303.656 260.735 303.759 260.491C303.862 260.247 304.035 260.039 304.256 259.894C304.477 259.749 304.736 259.672 305 259.674C305.175 259.674 305.348 259.709 305.51 259.776C305.671 259.843 305.818 259.942 305.941 260.066C306.064 260.19 306.161 260.338 306.227 260.499C306.293 260.661 306.326 260.835 306.325 261.01V261.01Z" fill="white" stroke="#263238" stroke-linecap="round" stroke-linejoin="round"/>
<path d="M307.222 251.865C307.222 252.129 307.144 252.387 306.997 252.606C306.85 252.826 306.642 252.997 306.398 253.098C306.154 253.199 305.885 253.226 305.626 253.174C305.367 253.123 305.129 252.995 304.943 252.809C304.756 252.622 304.629 252.384 304.577 252.125C304.526 251.866 304.552 251.598 304.653 251.354C304.754 251.11 304.925 250.901 305.145 250.754C305.365 250.608 305.623 250.529 305.887 250.529C306.241 250.529 306.581 250.67 306.831 250.92C307.082 251.171 307.222 251.51 307.222 251.865V251.865Z" fill="white" stroke="#263238" stroke-linecap="round" stroke-linejoin="round"/>
<path d="M23.3204 294.403L124.915 249.003L411.869 329.648L352.589 374.521" fill="white"/>
<path d="M23.3204 294.403L124.915 249.003L411.869 329.648L352.589 374.521" stroke="#263238" stroke-linecap="round" stroke-linejoin="round"/>
<path d="M45.134 300.115L127.429 263.344L359.86 328.672L311.845 365.006" fill="white"/>
<path d="M45.134 300.115L127.429 263.344L359.86 328.672L311.845 365.006" stroke="#263238" stroke-linecap="round" stroke-linejoin="round"/>
<path d="M127.429 263.344V273.611L349.234 336.302L359.86 328.672L130.952 264.668" fill="#263238"/>
<path d="M45.134 310.382L127.429 273.611L348.684 335.786" stroke="#263238" stroke-linecap="round" stroke-linejoin="round"/>
<path d="M471.194 374.016L411.869 329.648L353.24 374.016H471.194Z" fill="#263238"/>
<path d="M110.956 333.834C133.099 333.834 151.049 325.56 151.049 315.353C151.049 305.146 133.099 296.872 110.956 296.872C88.8137 296.872 70.8636 305.146 70.8636 315.353C70.8636 325.56 88.8137 333.834 110.956 333.834Z" fill="black"/>
<path opacity="0.5" d="M110.956 333.834C133.099 333.834 151.049 325.56 151.049 315.353C151.049 305.146 133.099 296.872 110.956 296.872C88.8137 296.872 70.8636 305.146 70.8636 315.353C70.8636 325.56 88.8137 333.834 110.956 333.834Z" fill="white"/>
<path d="M120.763 92.8858C120.763 92.8858 123.569 99.6184 123.007 102.985C122.446 106.351 114.883 109.156 113.761 109.717C112.639 110.278 106.76 107.754 106.76 101.302C106.76 94.8495 117.397 87.5671 120.763 92.8858Z" fill="white" stroke="#263238" stroke-linecap="round" stroke-linejoin="round"/>
<path d="M117.476 74.6629L133.252 72.8339C133.991 72.7532 134.738 72.8199 135.45 73.0302C136.162 73.2405 136.826 73.5901 137.402 74.0588C137.978 74.5274 138.456 75.1058 138.807 75.7605C139.157 76.4151 139.375 77.1328 139.446 77.8721V77.8721C139.509 78.6318 139.416 79.3962 139.174 80.1189C138.932 80.8415 138.544 81.5072 138.036 82.0753C137.528 82.6434 136.909 83.1019 136.218 83.423C135.527 83.7441 134.777 83.9209 134.015 83.9427L119.428 84.2456L117.476 74.6629Z" fill="#263238"/>
<path d="M119.338 71.2966C119.338 71.2966 122.705 70.1745 124.949 71.2966C127.193 72.4187 129.157 74.1019 128.876 75.224C128.596 76.3461 126.912 76.0656 124.668 76.3461C122.424 76.6266 120.012 78.1751 119.54 76.9857C119.069 75.7963 119.338 71.2966 119.338 71.2966Z" fill="white" stroke="#263238" stroke-linecap="round" stroke-linejoin="round"/>
<path d="M127.619 76.1553L143.497 75.7514C144.242 75.738 144.983 75.8732 145.675 76.1491C146.367 76.425 146.998 76.8362 147.53 77.3585C148.061 77.8808 148.484 78.5039 148.772 79.1912C149.06 79.8786 149.209 80.6165 149.208 81.3619V81.3619C149.21 82.1288 149.054 82.888 148.751 83.5924C148.447 84.2968 148.003 84.9315 147.444 85.4573C146.886 85.9831 146.226 86.3888 145.504 86.6494C144.783 86.91 144.016 87.0199 143.25 86.9723L128.663 85.9512L127.619 76.1553Z" fill="#263238"/>
<path d="M121.493 76.1553L129.594 76.3349C130.115 76.7373 130.545 77.2452 130.857 77.8252C131.168 78.4053 131.353 79.0445 131.401 79.7012C131.416 81.6476 131.17 83.5873 130.671 85.4687H122.031C120.851 84.5479 119.975 83.2927 119.518 81.8668C118.8 79.5665 121.493 76.1553 121.493 76.1553Z" fill="#263238"/>
<path d="M118.519 112.747C118.519 112.747 128.719 113.97 133.937 114.453C139.154 114.935 150.948 108.303 157.568 106.598C165.423 104.544 169.563 108.999 171.617 111.737C173.67 114.475 188.089 124.394 188.089 124.394L190.827 131.935L179.18 135.705C179.18 135.705 174.691 130.218 167.869 121.656C161.047 113.095 157.994 108.741 152.485 112.119C146.975 115.496 139.098 121.656 132.927 120.287C126.755 118.918 118.519 112.747 118.519 112.747Z" fill="#263238"/>
<path d="M123.008 307.24L123.815 307.509L140.4 312.94C140.4 312.94 142.498 314.13 141.892 315.936C141.286 317.743 123.939 319.83 117.016 319.83C110.092 319.83 105.626 319.235 105.626 316.531C105.626 313.827 123.008 307.24 123.008 307.24Z" fill="black" stroke="#263238" stroke-linecap="round" stroke-linejoin="round"/>
<path d="M141.926 315.914C142.038 315.538 142.049 315.139 141.959 314.757C141.868 314.375 141.679 314.023 141.41 313.737C134.873 315.524 128.161 316.593 121.392 316.924C116.205 317.372 110.995 317.477 105.795 317.238C106.569 319.314 110.822 319.808 117.016 319.808C123.939 319.83 141.331 317.732 141.926 315.914Z" fill="white" stroke="#263238" stroke-linecap="round" stroke-linejoin="round"/>
<path d="M92.767 297.051C92.767 297.051 101.452 293.449 102.956 296.445C104.459 299.441 100.857 303.941 98.759 304.839C96.6606 305.736 95.157 306.342 93.9676 307.835C92.7782 309.327 89.165 312.94 85.2714 312.323C81.3777 311.706 81.3665 306.634 81.6694 305.725C81.9724 304.816 92.767 297.051 92.767 297.051Z" fill="black" stroke="#263238" stroke-linecap="round" stroke-linejoin="round"/>
<path d="M102.17 295.716C101.923 298.151 101.216 300.822 99.4323 301.82C95.8303 303.818 94.237 303.414 91.039 307.431C90.0541 308.591 88.7787 309.468 87.3433 309.973C85.9079 310.477 84.3641 310.592 82.8701 310.303L82.511 310.561C82.8023 311.057 83.202 311.48 83.68 311.798C84.1581 312.117 84.7022 312.323 85.2714 312.402C89.1651 313.008 92.767 309.406 93.9677 307.913C95.1683 306.421 96.6607 305.815 98.759 304.917C100.857 304.02 104.459 299.52 102.956 296.524C102.79 296.176 102.514 295.891 102.17 295.716Z" fill="white" stroke="#263238" stroke-linecap="round" stroke-linejoin="round"/>
<path d="M85.8661 171.736C85.8661 171.736 83.4648 181.632 85.2714 186.121C87.0779 190.609 87.3697 197.813 87.6727 200.214C87.9756 202.616 84.6654 222.656 83.4648 233.193C82.2641 243.729 77.1698 255.377 79.2681 262.872C81.3665 270.368 79.5711 297.657 80.177 301.843C80.783 306.028 81.9724 309.697 82.8701 310.236C83.7678 310.775 87.0667 311.134 89.771 309.933C92.4752 308.732 94.2594 299.744 94.8653 297.051C95.4712 294.358 97.8613 262.872 98.759 258.07C99.6567 253.267 102.361 231.689 102.361 231.689C102.361 231.689 104.751 249.385 104.156 254.131C103.562 258.878 101.452 268.225 102.361 276.573C103.27 284.922 104.751 316.138 104.751 316.138C106.049 316.886 107.47 317.395 108.948 317.642C110.451 317.642 121.841 309.843 123.041 307.15C124.242 304.457 123.041 299.655 123.041 299.655C123.041 299.655 125.139 251.988 127.238 235.796C129.336 219.604 124.545 175.539 124.545 175.539C124.545 175.539 100.857 181.027 85.8661 171.736Z" fill="#263238"/>
<path d="M102.058 228.099L98.1643 206.218L91.5663 194.817" stroke="white" stroke-linecap="round" stroke-linejoin="round"/>
<path d="M121.885 69.0524C122.592 70.9754 123.066 72.9756 123.299 75.0108C123.299 76.9857 122.177 78.3771 122.446 79.8246C122.716 81.2721 124.994 83.5051 123.019 87.1855C121.044 90.866 122.727 96.2521 119.899 97.3854C117.993 98.0879 115.983 98.4671 113.952 98.5075L113.099 104.735L98.9385 100.247V88.8911C98.9385 88.8911 104.886 89.1716 107.152 86.3327C109.419 83.4938 108.847 77.5579 109.98 73.5857C111.113 69.6135 115.647 67.0776 117.633 67.0776C119.619 67.0776 121.885 69.0524 121.885 69.0524Z" fill="white" stroke="#263238" stroke-linecap="round" stroke-linejoin="round"/>
<path d="M125.947 63.9244C125.645 65.006 125.13 66.0165 124.432 66.8969C123.735 67.7773 122.869 68.5101 121.885 69.0524C119.047 70.758 115.366 70.1745 115.366 71.6108C115.366 73.0471 117.913 72.7329 117.06 76.4246C116.52 78.6843 115.354 80.7457 113.694 82.3717C113.694 82.3717 116.253 85.4912 113.694 86.0522C111.136 86.6133 110.586 90.305 107.466 91.1578C104.347 92.0106 101.519 94.266 98.9722 91.9993C96.425 89.7327 88.2001 80.3856 87.0668 74.158C85.9334 67.9303 92.1723 61.411 92.1723 61.411C92.1723 61.411 91.8918 57.7305 94.1584 56.3054C96.425 54.8804 102.484 54.4091 103.057 52.1424C105.435 42.7168 121.784 51.5926 124.657 56.5747C125.989 58.778 126.449 61.3993 125.947 63.9244V63.9244Z" fill="#263238"/>
<path d="M120.763 61.8486C120.791 63.0695 120.493 64.2758 119.902 65.3443C119.31 66.4127 118.446 67.3051 117.397 67.9303C113.761 69.9501 105.671 68.3343 102.81 72.1719C99.9484 76.0094 102.002 82.0688 97.7603 83.0787" stroke="white" stroke-width="0.5" stroke-linecap="round" stroke-linejoin="round"/>
<path d="M114.547 74.5732C114.547 74.5732 110.698 75.785 109.082 78.2088C107.466 80.6325 106.659 86.2879 101.811 87.7017" stroke="white" stroke-width="0.5" stroke-linecap="round" stroke-linejoin="round"/>
<path d="M113.952 87.4661C113.952 87.4661 111.708 80.6661 108.566 82.3717C105.424 84.0773 108.005 89.1716 109.688 90.5855C111.371 91.9993 113.369 90.0244 113.369 90.0244" fill="white"/>
<path d="M113.952 87.4661C113.952 87.4661 111.708 80.6661 108.566 82.3717C105.424 84.0773 108.005 89.1716 109.688 90.5855C111.371 91.9993 113.369 90.0244 113.369 90.0244" stroke="#263238" stroke-linecap="round" stroke-linejoin="round"/>
<path d="M92.1386 101.346C88.626 103.873 85.6762 107.102 83.476 110.828C80.1097 116.775 84.4859 144.413 85.6192 151.773C86.7525 159.134 84.2054 171.32 86.1915 174.72C88.1776 178.12 94.6857 180.948 100.913 181.52C107.141 182.093 116.78 181.24 120.46 180.106C124.141 178.973 126.127 175.854 126.127 174.44C126.127 173.026 125.846 155.746 125.846 152.054C125.846 148.362 125.566 122.027 123.299 116.932C121.237 112.512 117.741 108.918 113.38 106.732C109.98 105.038 97.1992 98.7993 92.1386 101.346Z" fill="black" stroke="#263238" stroke-linecap="round" stroke-linejoin="round"/>
<path d="M117.262 135.021C117.262 135.021 114.233 137.77 105.682 138.881" stroke="#263238" stroke-miterlimit="10"/>
<path d="M111.158 146.825C110.345 147.677 109.433 148.431 108.443 149.069" stroke="#263238" stroke-miterlimit="10"/>
<path d="M118.362 135.021C117.044 138.324 115.33 141.455 113.256 144.345" stroke="#263238" stroke-miterlimit="10"/>
<path d="M116.982 165.609C111.913 172.202 104.521 176.616 96.3128 177.952C96.3128 177.952 108.443 178.233 116.432 169.682" stroke="#263238" stroke-linecap="round" stroke-linejoin="round"/>
<path d="M94.6857 96.5326C94.6857 96.5326 102.9 97.1049 108.286 100.213C113.672 103.321 117.352 106.452 119.327 107.013C121.302 107.574 124.994 107.866 123.815 108.135C122.637 108.404 121.268 108.707 118.441 109.549C115.613 110.391 111.641 108.707 105.694 105.868C99.7464 103.03 93.227 101.38 92.0937 101.38C90.9604 101.38 92.4191 96.5326 94.6857 96.5326Z" fill="black" stroke="#263238" stroke-linecap="round" stroke-linejoin="round"/>
<path d="M142.846 124.866C142.846 124.866 152.261 131.161 153.641 135.84" stroke="#263238" stroke-linecap="round" stroke-linejoin="round"/>
<path d="M142.274 114.666L132.366 91.4944C131.113 90.0889 129.684 88.8518 128.113 87.8139C127.857 87.6954 127.633 87.5183 127.458 87.2968C127.283 87.0754 127.163 86.816 127.107 86.5395C127.052 86.263 127.062 85.9773 127.137 85.7055C127.212 85.4337 127.351 85.1834 127.541 84.975C127.541 84.975 130.38 85.5473 130.38 84.414C130.345 82.5311 130.154 80.6545 129.807 78.8035C129.527 77.9507 128.685 77.3784 128.685 76.5593C128.685 75.7401 130.671 74.5732 132.938 75.1454C135.205 75.7177 134.823 75.3811 134.823 75.3811C138.066 74.6629 138.694 75.3811 140.31 78.2536C141.321 80.4734 141.804 82.8965 141.724 85.3341C141.724 86.7591 140.018 91.0007 140.018 91.0007L152.204 114.565L142.274 114.666Z" fill="white" stroke="#263238" stroke-linecap="round" stroke-linejoin="round"/>
<path d="M143.407 121.185C143.407 121.185 139.727 121.185 140.041 120.332C140.355 119.479 139.199 116.36 139.199 114.946C139.199 113.532 141.747 111.827 144.81 111.266C147.873 110.705 151.329 111.827 152.463 112.119C153.596 112.41 153.876 114.666 154.707 116.08C155.537 117.493 156.121 119.199 155.56 120.332C155.016 121.126 154.228 121.721 153.315 122.027L143.407 121.185Z" fill="black" stroke="#263238" stroke-linecap="round" stroke-linejoin="round"/>
<path d="M102.619 116.932C102.619 116.932 104.605 110.132 108.566 108.719C112.527 107.305 117.352 109.28 122.166 112.399C126.98 115.518 142.846 124.866 142.846 124.866L141.141 118.066C141.141 118.066 151.34 114.946 153.888 119.76C156.435 124.574 158.14 142.146 158.14 144.446C158.14 146.746 152.193 148.688 148.513 148.407C144.832 148.127 112.247 131.98 112.247 131.98" fill="black"/>
<path d="M102.619 116.932C102.619 116.932 104.605 110.132 108.566 108.719C112.527 107.305 117.352 109.28 122.166 112.399C126.98 115.518 142.846 124.866 142.846 124.866L141.141 118.066C141.141 118.066 151.34 114.946 153.888 119.76C156.435 124.574 158.14 142.146 158.14 144.446C158.14 146.746 152.193 148.688 148.513 148.407C144.832 148.127 112.247 131.98 112.247 131.98" stroke="#263238" stroke-linecap="round" stroke-linejoin="round"/>
<path d="M147.02 127.581C149.946 128.448 152.542 130.176 154.471 132.541" stroke="#263238" stroke-linecap="round" stroke-linejoin="round"/>
</svg>
