<svg width="116" height="116" viewBox="0 0 116 116" fill="none" xmlns="http://www.w3.org/2000/svg">
    <path d="M73.5338 25.5L61.5338 13L60.0338 23.5L68.0338 28L73.5338 25.5Z" fill="black" stroke="black"/>
    <path d="M25.5338 68L19.0338 74.5L25.5338 79V81L29.5338 83L34.0338 84L39.0338 86L43.0338 83L46.5338 81L51.5338 77.5L58.5338 74.5H66.0338L71.0338 77.5L76.0338 81V86V90V95L72.5338 98L71.0338 101L67.5338 103L64.0338 105L60.5338 107L55.5338 110H48.5338H41.5338L36.5338 111.5L67.5338 114L71.0338 111.5L79.5338 107L88.0338 101L94.0338 95L99.5338 90L108.034 73L111.534 58.5V45.5L108.034 35L102.034 26H99.5338H94.0338H88.0338L79.5338 28L71.0338 31H67.5338L46.5338 18.5L48.5338 38L36.5338 54V58.5L33.0338 61.5L25.5338 68Z"
          fill="black" stroke="black"/>
    <path d="M50.0338 49L41.0338 59H45.5338L50.0338 54.2381V51.381V49Z" fill="white" stroke="black"/>
    <path d="M112 58C112 87.8234 87.8234 112 58 112C28.1766 112 4.00001 87.8234 4.00001 58C4.00001 28.1766 28.1766 4 58 4C87.8234 4 112 28.1766 112 58Z"
          fill="white" fill-opacity="0.01" stroke="black" stroke-width="8"/>
</svg>