<?xml version="1.0" standalone="no"?>
<!DOCTYPE svg PUBLIC "-//W3C//DTD SVG 20010904//EN"
 "http://www.w3.org/TR/2001/REC-SVG-20010904/DTD/svg10.dtd">
<svg version="1.0" xmlns="http://www.w3.org/2000/svg"
 width="1280.000000pt" height="1280.000000pt" viewBox="0 0 1280.000000 1280.000000"
 preserveAspectRatio="xMidYMid meet">
<metadata>
Created by potrace 1.14, written by Peter Selinger 2001-2017
</metadata>
<g transform="translate(0.000000,1280.000000) scale(0.100000,-0.100000)"
fill="#000000" stroke="none">
<path d="M10953 12129 c-67 -44 -81 -57 -232 -197 -57 -53 -112 -104 -121
-112 -19 -17 -168 -150 -184 -165 -189 -174 -444 -364 -549 -409 -111 -48
-194 -64 -372 -71 -191 -7 -317 -14 -345 -19 -14 -3 -45 -7 -70 -10 -25 -3
-54 -8 -65 -10 -11 -2 -40 -7 -65 -10 -25 -3 -56 -8 -70 -10 -14 -3 -88 -14
-165 -26 -77 -12 -176 -28 -220 -35 -44 -8 -120 -21 -170 -30 -186 -33 -593
-118 -675 -142 -172 -49 -220 -86 -379 -286 -44 -56 -108 -101 -224 -159 -91
-46 -104 -43 -126 21 -10 29 -25 57 -32 62 -23 14 -64 10 -182 -17 -62 -14
-123 -28 -137 -30 -14 -3 -47 -11 -75 -20 -27 -8 -115 -32 -195 -55 -156 -44
-382 -114 -415 -129 -11 -5 -45 -19 -75 -31 -30 -11 -84 -35 -120 -52 -36 -17
-67 -31 -70 -31 -25 -5 -235 -136 -380 -237 -52 -36 -133 -92 -180 -124 -47
-32 -113 -79 -147 -104 -34 -25 -74 -55 -89 -66 -15 -11 -33 -26 -40 -32 -7
-7 -17 -13 -22 -13 -6 0 -12 -3 -14 -8 -4 -11 -290 -229 -411 -314 -127 -89
-225 -141 -396 -212 -170 -71 -259 -124 -342 -206 -115 -112 -191 -242 -294
-505 -27 -66 -52 -126 -58 -132 -5 -7 -7 -13 -4 -13 7 0 -78 -192 -112 -255
-11 -22 -21 -43 -21 -46 0 -4 -18 -46 -40 -93 -22 -47 -40 -88 -40 -91 0 -3
-9 -24 -19 -48 -11 -23 -43 -97 -70 -164 -120 -289 -160 -360 -227 -399 -43
-25 -271 -75 -401 -88 -73 -8 -138 -16 -173 -22 -14 -2 -43 -7 -65 -10 -80
-11 -270 -99 -340 -156 -37 -31 -152 -134 -230 -207 -27 -26 -90 -92 -139
-146 -123 -138 -217 -226 -275 -259 -9 -5 -18 -12 -21 -16 -8 -10 -119 -75
-187 -109 -93 -46 -151 -66 -323 -107 -155 -37 -256 -75 -296 -110 -12 -11
-36 -33 -55 -49 -117 -104 -180 -258 -180 -440 1 -187 73 -353 203 -466 162
-141 319 -252 571 -405 112 -67 460 -308 552 -381 12 -10 71 -48 145 -95 142
-89 269 -139 432 -168 121 -22 311 -20 768 6 63 3 124 8 135 10 11 2 43 6 70
9 28 4 66 10 85 15 19 5 51 11 70 14 44 7 208 57 280 86 86 33 192 94 360 205
224 147 228 150 323 189 145 60 304 103 406 110 53 4 159 -14 218 -36 59 -22
183 -128 183 -157 0 -9 -32 -44 -70 -79 -98 -89 -103 -102 -96 -228 4 -57 9
-111 12 -119 7 -16 6 -17 -111 -20 -97 -2 -127 7 -191 55 -42 31 -62 40 -86
38 -65 -6 -82 -76 -81 -325 1 -137 2 -136 -80 -192 -26 -18 -56 -42 -67 -53
l-20 -21 -52 32 c-106 66 -136 96 -218 218 -137 204 -167 230 -242 218 -52 -9
-141 -98 -180 -180 -54 -118 -60 -276 -14 -399 24 -63 86 -186 109 -214 8 -10
-2 -26 -39 -65 -27 -28 -51 -54 -54 -57 -8 -9 -29 -44 -42 -70 -21 -43 -15
-148 11 -215 33 -82 76 -160 123 -223 39 -52 124 -142 134 -142 3 0 12 -6 19
-12 33 -30 45 -37 116 -71 170 -81 496 -129 709 -104 30 3 88 16 129 27 186
52 276 122 596 465 151 161 316 327 401 403 32 30 122 115 199 191 77 75 169
161 205 191 36 30 67 58 70 61 3 3 39 28 80 56 98 66 199 123 302 168 46 20
92 40 103 45 207 94 658 218 940 260 44 7 88 14 97 15 136 26 660 26 788 0 14
-3 36 -7 50 -10 106 -19 387 -118 487 -172 147 -77 321 -196 428 -293 207
-187 486 -467 620 -625 33 -38 62 -72 65 -75 13 -12 192 -244 252 -327 262
-358 394 -591 508 -898 114 -308 162 -418 194 -444 9 -8 16 -17 16 -22 0 -24
241 -269 288 -293 42 -21 91 -17 108 9 12 18 8 33 -32 125 -24 58 -51 119 -59
136 -25 53 -73 205 -110 349 -50 192 -69 258 -121 413 -24 74 -44 142 -44 152
0 45 24 24 89 -77 149 -231 187 -274 351 -397 52 -39 97 -74 98 -78 2 -5 8 -8
13 -8 5 0 37 -20 72 -43 34 -24 114 -79 177 -122 176 -119 430 -315 660 -508
85 -71 158 -110 230 -122 55 -8 111 50 115 122 4 67 -1 77 -196 369 -298 447
-363 564 -509 909 -55 129 -165 343 -215 419 -22 33 -44 66 -50 75 -5 9 -12
18 -15 21 -3 3 -27 32 -54 65 -106 130 -289 287 -546 471 -103 74 -421 285
-520 346 -138 84 -370 224 -405 244 -393 225 -765 414 -950 484 -33 12 -71 27
-85 33 -14 6 -30 11 -36 13 -7 1 -38 11 -70 23 -33 11 -68 22 -79 24 -11 2
-27 7 -35 10 -47 18 -292 70 -415 88 -195 28 -524 30 -835 4 -25 -2 -83 -6
-130 -10 -47 -3 -92 -8 -100 -10 -8 -2 -51 -7 -94 -10 -43 -4 -88 -8 -98 -10
-11 -2 -54 -9 -96 -16 -42 -6 -84 -12 -92 -13 -35 -6 -141 -29 -215 -48 -44
-11 -87 -21 -95 -23 -24 -5 -232 -75 -275 -93 -91 -38 -245 -117 -323 -165
-46 -29 -92 -57 -101 -62 -62 -36 -248 -185 -406 -325 -28 -25 -84 -74 -125
-110 -87 -75 -285 -274 -349 -350 -25 -29 -50 -58 -55 -64 -6 -6 -49 -56 -96
-111 -92 -108 -179 -197 -255 -260 -27 -22 -82 -69 -124 -103 -212 -178 -340
-230 -533 -219 -109 6 -133 11 -248 44 -219 63 -370 184 -370 296 0 33 3 37
38 46 20 5 57 13 82 16 25 3 56 8 70 10 14 2 48 6 75 10 28 3 75 10 105 15 30
5 70 12 87 15 175 29 529 151 708 243 258 133 449 352 554 633 32 88 75 251
86 330 31 217 -16 371 -140 456 -164 112 -632 281 -880 319 -122 18 -295 -12
-440 -77 -11 -5 -50 -20 -87 -34 -72 -26 -151 -60 -183 -78 -124 -69 -412
-214 -505 -256 -106 -47 -192 -77 -290 -100 -77 -18 -100 -23 -166 -35 -12 -2
-45 -7 -74 -11 -29 -4 -62 -9 -74 -12 -45 -10 -354 -12 -401 -2 -27 6 -61 13
-75 15 -53 11 -174 56 -201 74 -15 11 -31 20 -36 20 -16 0 -89 76 -114 120
-46 79 -62 152 -63 295 -1 72 2 149 6 173 11 66 45 171 73 227 66 132 246 322
465 490 108 84 349 245 366 245 7 0 14 4 16 9 5 13 163 86 282 130 106 40 307
104 431 137 93 26 370 73 575 98 112 14 140 18 215 31 75 13 306 46 420 60 28
3 66 8 85 10 19 2 58 7 85 10 28 3 61 8 75 10 14 2 79 11 145 20 162 21 392
57 445 69 14 3 41 8 60 10 40 6 258 52 310 66 19 5 46 11 60 14 40 7 369 95
435 115 33 11 107 34 165 51 342 105 822 284 1135 425 103 46 163 74 265 122
63 31 124 59 135 64 54 24 447 231 685 362 91 50 182 100 203 111 51 27 64 51
37 66 -15 8 -27 7 -47 -3 -32 -16 -140 -42 -258 -63 -16 -2 -37 -7 -45 -9 -8
-2 -42 -7 -75 -11 -33 -3 -69 -8 -80 -10 -31 -6 -206 -5 -240 1 -215 41 -373
114 -480 222 -134 135 -191 272 -151 366 23 55 64 85 230 166 186 91 182 90
426 182 102 39 194 75 205 80 11 4 38 15 60 22 101 35 427 162 493 192 53 25
72 39 72 53 0 41 -30 45 -175 22 -44 -6 -89 -14 -100 -16 -11 -2 -40 -7 -65
-10 -25 -3 -56 -7 -70 -10 -85 -15 -478 -23 -740 -14 -146 5 -213 20 -438 96
-193 65 -198 66 -277 61 -130 -9 -328 -61 -475 -125 -96 -41 -248 -120 -255
-132 -3 -6 -10 -8 -15 -5 -4 3 -13 -2 -20 -10 -7 -8 -18 -15 -25 -15 -8 0 -15
-3 -17 -8 -1 -4 -28 -23 -58 -42 -141 -88 -271 -207 -336 -305 -38 -59 -104
-185 -108 -208 -1 -7 -10 -36 -20 -65 -76 -224 -54 -389 67 -503 39 -36 152
-87 327 -146 50 -16 75 -36 67 -50 -4 -6 -66 -31 -139 -58 -73 -26 -147 -54
-165 -61 -17 -8 -36 -14 -42 -14 -6 0 -19 -4 -29 -9 -9 -6 -102 -42 -207 -82
-234 -88 -303 -120 -730 -334 -187 -94 -381 -189 -431 -212 -93 -43 -274 -109
-322 -118 -90 -17 -254 -45 -297 -50 -27 -3 -61 -7 -75 -10 -14 -3 -41 -7 -60
-10 -47 -7 -234 -53 -290 -70 -25 -8 -112 -35 -195 -60 -218 -67 -660 -220
-750 -260 -16 -8 -113 -44 -215 -80 -275 -100 -391 -155 -550 -261 -128 -85
-144 -99 -295 -249 -154 -153 -234 -243 -371 -414 -108 -134 -134 -176 -140
-225 -11 -77 -12 -79 -52 -71 -119 22 -306 156 -393 282 -72 103 -93 240 -51
322 20 38 83 77 172 105 107 35 421 155 470 181 132 69 180 97 278 167 62 43
122 87 132 96 10 9 25 22 32 27 7 6 90 72 183 146 200 161 308 235 413 288
242 122 638 240 816 243 135 3 170 -5 301 -68 95 -45 143 -48 206 -13 57 32
89 80 88 133 0 23 -8 82 -18 131 -10 50 -17 106 -15 125 2 19 5 73 8 120 3 47
8 95 10 107 3 12 7 48 11 79 3 32 8 60 10 63 2 4 6 27 10 51 19 136 79 310
167 490 40 80 75 147 78 150 4 3 17 23 29 45 12 22 27 49 34 60 129 209 253
376 372 503 100 108 297 259 456 352 30 17 61 35 69 40 199 122 462 270 480
270 11 0 -13 -33 -72 -102 -82 -95 -124 -158 -187 -284 -72 -142 -87 -198 -65
-233 13 -19 22 -22 47 -18 35 6 223 118 357 212 114 80 145 96 206 111 69 16
123 -3 240 -82 49 -34 100 -67 114 -74 60 -32 176 -14 290 46 64 33 114 75
277 235 227 221 370 289 613 291 113 2 307 -7 392 -17 50 -6 45 -5 228 -44 52
-11 110 -23 128 -26 43 -7 85 -14 125 -20 17 -3 88 -17 157 -30 316 -61 636
-76 850 -40 14 2 61 9 105 15 44 7 89 14 100 16 11 2 34 7 50 10 168 30 270
55 373 93 116 43 145 30 146 -63 0 -87 -23 -180 -61 -249 -10 -17 -60 -94
-111 -171 -123 -183 -115 -203 45 -120 129 69 324 187 421 258 188 135 412
391 523 596 13 25 27 47 30 50 7 5 119 236 166 340 119 262 340 1058 379 1363
3 23 7 52 9 65 11 68 20 259 19 423 0 159 -3 191 -17 213 -25 38 -62 34 -134
-15z m-5962 -7860 c46 -32 81 -101 84 -165 3 -65 -14 -139 -45 -188 -27 -44
-102 -112 -154 -138 -38 -19 -39 -19 -63 -1 -14 10 -38 36 -53 58 -25 34 -30
54 -36 130 -3 50 -8 97 -9 105 -5 32 52 101 148 179 13 10 79 38 95 41 2 0 17
-9 33 -21z m-633 -409 c67 -50 144 -64 272 -50 l55 6 53 -55 c61 -65 62 -87
13 -156 -29 -40 -129 -117 -143 -109 -3 2 -9 0 -12 -5 -9 -15 -133 -34 -173
-26 -53 10 -106 39 -136 75 -26 30 -26 32 -21 168 2 75 6 146 8 157 3 11 5 23
5 28 2 16 29 5 79 -33z m-750 -115 c17 -18 64 -85 105 -147 75 -115 120 -167
170 -196 15 -9 27 -20 27 -24 0 -4 4 -8 9 -8 5 0 32 -14 60 -31 57 -36 63 -56
35 -115 -40 -83 -127 -155 -214 -176 -67 -16 -253 -20 -279 -6 -50 27 -161
272 -162 357 -1 120 13 186 53 254 33 56 57 83 95 109 41 26 67 22 101 -17z"/>
<path d="M10884 9362 c-106 -99 -168 -152 -346 -295 -156 -127 -355 -254 -508
-326 -180 -84 -569 -170 -940 -206 -25 -3 -58 -7 -75 -10 -16 -2 -66 -7 -110
-11 -44 -3 -96 -7 -115 -9 -19 -2 -42 -4 -51 -4 -22 -1 -33 -30 -18 -47 9 -11
110 -70 339 -197 65 -36 295 -151 360 -180 108 -47 416 -134 541 -152 19 -2
45 -7 59 -9 52 -11 76 -16 109 -21 77 -13 123 -57 99 -95 -20 -31 -62 -46
-193 -70 -181 -32 -239 -48 -370 -103 -66 -27 -135 -54 -152 -61 -18 -6 -33
-14 -33 -18 0 -5 -5 -8 -12 -8 -24 0 -309 -141 -354 -175 -20 -15 -31 -32 -29
-42 2 -10 4 -21 4 -24 2 -13 57 -21 161 -24 225 -7 638 -124 843 -239 127 -70
295 -200 448 -344 92 -87 110 -112 101 -144 -7 -28 -30 -22 -144 37 -223 116
-319 139 -588 139 -167 0 -311 -11 -430 -35 -78 -15 -290 -68 -320 -79 -14 -6
-34 -11 -45 -13 -11 -2 -27 -6 -35 -9 -8 -3 -60 -20 -115 -38 -130 -42 -181
-70 -177 -95 7 -39 8 -39 217 -31 74 3 149 1 175 -5 105 -24 216 -101 323
-224 103 -119 194 -256 458 -694 146 -240 137 -225 172 -287 15 -27 41 -71 57
-99 16 -27 39 -74 50 -104 21 -53 21 -55 2 -73 -18 -19 -20 -19 -78 2 -207 76
-316 103 -414 103 -39 0 -182 -12 -210 -18 -105 -21 -145 -31 -225 -57 -49
-16 -130 -49 -180 -73 -86 -42 -274 -150 -285 -164 -3 -3 -25 -19 -50 -35 -25
-16 -71 -50 -102 -75 -104 -84 -100 -137 10 -135 31 0 77 3 102 7 67 11 169
20 215 20 47 0 212 -12 241 -17 10 -2 51 -7 89 -10 90 -9 264 -33 335 -47 51
-10 128 -42 140 -58 31 -42 396 -220 623 -305 96 -36 233 -73 305 -82 20 -2
48 -7 62 -9 101 -19 535 -25 735 -11 184 13 196 16 201 51 3 21 -18 34 -186
108 -432 193 -520 239 -600 317 -128 125 -112 169 82 220 67 18 192 20 308 6
25 -3 72 -8 105 -11 85 -9 139 -14 188 -20 23 -3 69 -7 102 -10 141 -12 190
-17 196 -20 12 -8 199 -17 223 -11 14 3 30 15 36 26 16 30 -28 69 -155 138
-170 92 -187 101 -240 142 -104 78 -186 176 -319 380 -55 83 -165 239 -181
256 -5 6 -28 31 -49 57 -36 43 -75 86 -218 235 -28 29 -48 55 -45 58 8 8 71
-13 127 -41 25 -13 113 -57 195 -98 83 -41 170 -87 195 -101 25 -14 52 -29 60
-32 24 -11 185 -126 295 -210 167 -128 224 -153 260 -117 36 35 9 109 -121
333 -117 200 -146 283 -239 680 -35 153 -62 243 -91 307 -13 29 -24 57 -25 61
-4 12 -130 196 -142 207 -7 6 -29 31 -50 57 -54 68 -125 138 -181 178 -88 63
-150 126 -143 144 15 39 103 49 241 29 209 -30 289 -61 466 -180 56 -37 109
-73 118 -78 9 -6 56 -36 104 -67 99 -65 146 -79 172 -52 37 36 4 101 -161 322
-57 75 -110 145 -118 155 -14 16 -252 375 -309 465 -14 23 -33 50 -41 60 -7 9
-34 44 -59 78 -62 83 -205 226 -280 279 -15 11 -33 25 -40 31 -40 38 -194 115
-261 130 -95 23 -288 27 -355 9 -14 -4 -53 -8 -86 -10 -66 -4 -95 8 -100 41
-8 49 23 100 180 302 168 216 230 310 310 470 49 97 58 154 26 159 -8 2 -38
-19 -66 -45z"/>
<path d="M5380 8642 c-172 -86 -311 -144 -425 -177 -181 -54 -267 -92 -395
-178 -135 -90 -287 -228 -394 -357 -55 -67 -74 -92 -111 -151 -46 -74 -112
-221 -158 -354 -52 -153 -106 -287 -132 -330 -31 -49 -125 -238 -125 -250 0
-24 36 -22 100 8 109 50 372 183 428 216 29 17 55 31 58 31 3 0 17 8 32 19 15
10 65 43 112 74 47 30 96 64 109 76 13 12 27 21 31 21 13 0 246 233 300 299
28 35 57 70 63 77 79 89 497 689 609 874 29 47 54 87 58 90 17 15 28 58 17 69
-18 18 -36 13 -177 -57z m-820 -524 c41 -86 48 -157 25 -257 -50 -213 -214
-360 -406 -363 -37 0 -48 5 -77 37 -34 36 -34 38 -28 103 6 56 28 116 59 157
66 88 123 155 190 221 76 76 185 172 197 173 3 1 21 -32 40 -71z"/>
</g>
</svg>
